<?xml version="1.0" encoding="UTF-8" standalone="no"?>
<svg
   width="1162pt"
   height="307pt"
   viewBox="0 0 1162 307"
   version="1.1"
   id="svg8"
   sodipodi:docname="juruka studios logo 5.svg"
   inkscape:version="1.3.2 (091e20e, 2023-11-25, custom)"
   xmlns:inkscape="http://www.inkscape.org/namespaces/inkscape"
   xmlns:sodipodi="http://sodipodi.sourceforge.net/DTD/sodipodi-0.dtd"
   xmlns="http://www.w3.org/2000/svg"
   xmlns:svg="http://www.w3.org/2000/svg">
  <defs
     id="defs8" />
  <sodipodi:namedview
     id="namedview8"
     pagecolor="#ffffff"
     bordercolor="#000000"
     borderopacity="0.25"
     inkscape:showpageshadow="2"
     inkscape:pageopacity="0.0"
     inkscape:pagecheckerboard="0"
     inkscape:deskcolor="#d1d1d1"
     inkscape:document-units="pt"
     inkscape:zoom="0.32586547"
     inkscape:cx="164.17818"
     inkscape:cy="-268.51571"
     inkscape:window-width="1920"
     inkscape:window-height="1009"
     inkscape:window-x="-8"
     inkscape:window-y="-8"
     inkscape:window-maximized="1"
     inkscape:current-layer="#1f1c19ff" />
  <g
     id="#1f1c19ff">
    <g
       id="g8">
      <path
         fill="#1f1c19"
         opacity="1.00"
         d=" M 87.69 27.48 C 125.50 26.48 163.34 27.08 201.16 27.15 C 180.15 43.78 159.74 61.27 138.11 77.05 C 120.67 61.20 104.89 43.60 87.69 27.48 Z"
         id="path1"
         style="fill:#ff6a00;fill-opacity:1" />
      <path
         fill="#1f1c19"
         opacity="1"
         d="m 148.63,78.53 c 21.23,-16.69 41.71,-34.32 63.15,-50.73 -3.25,43.6 -11.56,86.72 -16.84,130.13 -3.49,20.51 -3.75,42.35 -13.97,61.03 C 155.07,270.98 79.45,287.98 32.99,254.02 15.75,240.7 7.47,218.67 8.03,197.27 c 19.57,-4.14 39.12,-8.43 58.8,-12.01 0.14,33.77 52.06,35.57 62.29,7.7 5.43,-35.5 9.86,-71.16 15.03,-106.71 0.38,-3.09 2.22944,-5.759424 4.48,-7.72 z"
         id="path2"
         sodipodi:nodetypes="cccccccccc" />
      <path
         fill="#1f1c19"
         opacity="1.00"
         d=" M 786.00 52.01 C 807.00 52.00 828.00 51.96 849.01 52.02 C 843.80 122.85 839.03 193.88 839.97 264.92 C 818.94 265.02 797.92 265.14 776.91 264.87 C 783.09 194.11 785.91 123.03 786.00 52.01 Z"
         id="path3" />
      <path
         fill="#1f1c19"
         opacity="1.00"
         d=" M 495.29 122.30 C 507.94 106.97 528.25 97.63 548.11 102.81 C 549.28 120.14 549.46 137.52 550.17 154.87 C 537.40 152.39 523.02 151.06 511.67 158.73 C 497.43 168.42 494.56 186.66 493.50 202.54 C 492.74 223.43 490.57 244.45 492.87 265.31 C 471.90 264.70 450.92 265.20 429.95 264.91 C 432.81 211.69 438.09 158.52 435.79 105.14 C 455.96 106.44 476.26 106.54 496.45 105.34 C 496.10 110.99 495.62 116.64 495.29 122.30 Z"
         id="path4" />
      <path
         fill="#1f1c19"
         opacity="1.00"
         d=" M 998.17 111.17 C 1034.29 104.30 1072.03 96.67 1108.47 105.46 C 1125.69 108.99 1142.66 123.16 1141.01 142.33 C 1140.95 183.23 1135.44 223.97 1135.96 264.92 C 1115.30 265.07 1094.63 265.02 1073.97 264.97 C 1075.75 241.65 1077.86 218.34 1077.94 194.94 C 1061.50 203.12 1021.20 203.62 1032.26 231.45 C 1042.40 236.10 1053.84 235.50 1064.26 232.17 C 1060.55 243.66 1056.70 255.12 1053.98 266.90 C 1030.13 269.91 1001.33 272.75 982.63 254.36 C 964.53 236.87 965.21 205.05 984.75 188.72 C 1008.27 167.86 1041.85 169.46 1069.83 158.95 C 1079.36 156.45 1080.44 141.95 1071.41 138.12 C 1044.39 131.53 1017.24 142.06 991.86 150.87 C 993.95 137.64 995.93 124.38 998.17 111.17 Z"
         id="path5" />
      <path
         fill="#1f1c19"
         opacity="1.00"
         d=" M 226.88 105.14 C 247.96 106.49 269.14 106.51 290.22 105.17 C 289.67 137.32 282.27 169.51 285.29 201.59 C 289.60 225.34 326.74 221.48 332.36 200.29 C 341.84 169.67 338.30 136.78 340.86 105.18 C 361.56 106.45 382.40 106.59 403.10 105.04 C 399.21 158.26 395.11 211.52 394.97 264.91 C 374.98 265.08 355.00 265.06 335.02 264.88 C 335.01 258.23 334.99 251.58 334.96 244.94 C 314.54 270.57 276.55 274.39 247.49 263.47 C 230.59 256.69 219.87 239.16 221.37 220.91 C 223.62 182.36 227.02 143.80 226.88 105.14 Z"
         id="path6" />
      <path
         fill="#1f1c19"
         opacity="1.00"
         d=" M 574.78 105.24 C 595.95 106.45 617.20 106.43 638.37 105.27 C 636.05 136.52 631.41 167.80 632.53 199.16 C 632.70 213.84 649.92 221.50 662.59 216.79 C 674.42 213.42 681.31 201.60 683.12 190.07 C 687.88 161.97 686.80 133.28 688.76 104.94 C 709.47 106.70 730.36 106.54 751.09 105.01 C 745.79 158.20 744.01 211.64 741.91 265.00 C 722.28 264.95 702.66 265.17 683.04 264.87 C 682.96 257.78 682.89 250.70 682.70 243.62 C 662.20 272.88 617.70 275.64 588.18 259.80 C 571.94 250.67 567.44 230.76 569.27 213.47 C 571.98 177.45 574.17 141.37 574.78 105.24 Z"
         id="path7" />
      <path
         fill="#1f1c19"
         opacity="1.00"
         d=" M 892.86 105.12 C 915.62 106.49 938.52 106.57 961.31 105.25 C 944.09 129.27 924.93 151.85 907.91 176.02 C 925.38 205.83 942.68 235.74 961.02 265.03 C 938.39 264.94 915.76 265.14 893.14 264.89 C 879.43 233.92 860.98 205.42 845.80 175.21 C 861.59 151.90 877.97 129.02 892.86 105.12 Z"
         id="path8" />
    </g>
  </g>
</svg>
